<?xml version="1.0" encoding="UTF-8"?>
<svg version="1.1" xmlns="http://www.w3.org/2000/svg" width="1024" height="1024">
<path d="M0 0 C337.92 0 675.84 0 1024 0 C1024 337.92 1024 675.84 1024 1024 C686.08 1024 348.16 1024 0 1024 C0 686.08 0 348.16 0 0 Z " fill="#FEFEFE" transform="translate(0,0)"/>
<path d="M0 0 C69.0380869 -3.07595437 142.57005386 28.59966329 195.33056641 71.63916016 C196.91391507 72.92982782 198.50937232 74.20559927 200.10546875 75.48046875 C208.49459164 82.32582739 216.1447772 89.93328033 223.8125 97.5625 C224.61646713 98.35856659 224.61646713 98.35856659 225.43667603 99.17071533 C232.42634647 106.10725427 238.92855451 113.22766421 245 121 C245.54213135 121.68811768 246.0842627 122.37623535 246.64282227 123.08520508 C258.64101613 138.47682751 268.83718743 154.78621357 278 172 C278.34095703 172.63131836 278.68191406 173.26263672 279.03320312 173.91308594 C289.89528565 194.13642646 298.03940271 215.86331635 304 238 C304.26651367 238.9811377 304.53302734 239.96227539 304.80761719 240.97314453 C311.02232908 264.2389568 315.08584139 288.46260287 315.203125 312.58984375 C315.21013931 313.56412827 315.21715363 314.53841278 315.22438049 315.54222107 C315.24179559 318.67402829 315.24823418 321.80564611 315.25 324.9375 C315.25101212 326.54628021 315.25101212 326.54628021 315.25204468 328.18756104 C315.2352818 344.97393833 314.68402215 361.39572249 312 378 C311.82839355 379.07717285 311.65678711 380.1543457 311.47998047 381.26416016 C304.00556007 426.6517264 287.03382876 470.96833732 261 509 C260.54657227 509.66837891 260.09314453 510.33675781 259.62597656 511.02539062 C252.93835971 520.84461697 245.84774339 530.08496351 238 539 C237.41089844 539.68835938 236.82179688 540.37671875 236.21484375 541.0859375 C228.63825749 549.90977506 220.86702847 558.94579768 211.91015625 566.39453125 C210.57164517 567.5195375 209.26913259 568.68812662 207.99609375 569.88671875 C158.82631551 616.14906663 84.2719015 647.28737984 16.56640625 647.1328125 C15.60838608 647.13376923 14.65036591 647.13472595 13.66331482 647.13571167 C11.64736871 647.13638726 9.63142035 647.1345767 7.61547852 647.13037109 C4.60102171 647.12506777 1.58671756 647.13030974 -1.42773438 647.13671875 C-3.40885452 647.13619111 -5.38997462 647.13489293 -7.37109375 647.1328125 C-8.82979385 647.13489716 -8.82979385 647.13489716 -10.31796265 647.13702393 C-15.13645981 647.11881719 -19.8847435 646.9657136 -24.68408203 646.52246094 C-25.58659195 646.44623505 -26.48910187 646.37000916 -27.41896057 646.29147339 C-29.1067936 646.13871148 -30.79225361 645.95512518 -32.47251892 645.73416138 C-35.96875734 645.42460356 -38.07946213 645.32859417 -40.98336792 647.44659424 C-42.76248255 649.22609031 -44.36978844 651.08491294 -46 653 C-47.18949721 654.08354607 -48.39602745 655.14894227 -49.625 656.1875 C-53.32714411 659.37825845 -56.91836141 662.67569096 -60.5 666 C-64.58282308 669.78651253 -68.69770509 673.51767734 -72.91015625 677.16015625 C-75.64370559 679.56670156 -78.32114006 682.03303196 -81 684.5 C-84.90979181 688.10015323 -88.85866536 691.64417664 -92.875 695.125 C-95.61823418 697.54550075 -98.30884568 700.02200642 -101 702.5 C-104.90981595 706.10012756 -108.85866468 709.64417605 -112.875 713.125 C-115.61824133 715.54550706 -118.30853582 718.02233594 -121 720.5 C-127.99961459 726.93069116 -127.99961459 726.93069116 -131.375 729.9375 C-132.22191406 730.69353516 -132.22191406 730.69353516 -133.0859375 731.46484375 C-135.61019984 733.48940518 -138.29107137 735.2334733 -141 737 C-145.60637329 728.64517394 -149.92041592 720.18723583 -154 711.5625 C-158.53586408 701.97365907 -163.23596655 692.47668201 -168 683 C-172.52383906 673.99759308 -177.00792312 664.98500076 -181.3125 655.875 C-186.95540334 643.9387652 -192.89439979 632.15175857 -198.8371582 620.36279297 C-203.02725097 612.03647191 -207.13026159 603.67600463 -211.1328125 595.2578125 C-217.40466314 582.07997344 -223.85713529 568.99395094 -230.36035156 555.92919922 C-231.70548964 553.2255605 -233.04471876 550.51911746 -234.37890625 547.81005859 C-242.12636259 532.08469117 -250.21797525 516.87632265 -259.68365479 502.09417725 C-262.62827684 497.40956987 -265.22419752 492.54655008 -267.75 487.625 C-268.54857422 486.07619141 -268.54857422 486.07619141 -269.36328125 484.49609375 C-288 447.62682605 -288 447.62682605 -288 432 C-279.70669493 431.74953105 -271.61325367 432.54647313 -263.375 433.4375 C-260.67878334 433.71747501 -257.98201642 433.99192544 -255.28515625 434.265625 C-254.01043457 434.39517578 -252.73571289 434.52472656 -251.42236328 434.65820312 C-240.37854843 435.76116651 -229.40778745 436.10712658 -218.3125 436.1875 C-216.63667847 436.20719849 -216.63667847 436.20719849 -214.92700195 436.22729492 C-200.81971636 436.64900451 -200.81971636 436.64900451 -188.25 431.5 C-185.07574401 427.9730489 -184.6159528 425.82043697 -184.74609375 421.03125 C-185.19399384 417.44804928 -186.16497154 416.25513628 -189 414 C-201.34743339 409.52770129 -215.11610019 408.79991938 -228.11413574 407.73904419 C-268.95512596 404.36324936 -268.95512596 404.36324936 -280 397 C-279.67 395.35 -279.34 393.7 -279 392 C-278.42579819 391.9529039 -277.85159637 391.9058078 -277.25999451 391.85728455 C-248.03006633 389.45120441 -218.84681883 386.7879361 -189.69829178 383.54304886 C-187.63474333 383.31358345 -185.57103455 383.08560751 -183.5072937 382.85787964 C-179.62135504 382.42828976 -175.73637267 381.99046664 -171.8515625 381.55078125 C-170.14083809 381.36036758 -170.14083809 381.36036758 -168.39555359 381.16610718 C-153.85786913 380.22437886 -153.85786913 380.22437886 -142 373 C-139.69501112 369.96160557 -139.58102669 366.80854949 -139.6796875 363.03125 C-140.21356136 359.64570842 -141.80726098 357.55819552 -144 355 C-147.84738851 352.21314375 -152.31235845 352.7307482 -156.85546875 352.76953125 C-157.7367041 352.76962692 -158.61793945 352.7697226 -159.52587891 352.76982117 C-162.41322156 352.77355937 -165.30022723 352.79255769 -168.1875 352.8125 C-170.19506718 352.8193648 -172.20263561 352.82587225 -174.21020508 352.83203125 C-187.18452821 352.88879966 -200.13858619 353.17283568 -213.10400391 353.64160156 C-228.06829713 354.16193596 -243.02865324 354.09481999 -258 354 C-258 352.68 -258 351.36 -258 350 C-245.12197729 347.38346644 -232.22226766 345.46592143 -219.18432617 343.87539673 C-204.66215906 342.0999534 -190.35875638 340.07181356 -176.09960938 336.72412109 C-173.16590056 336.03875717 -170.22760967 335.37659712 -167.28709412 334.72113037 C-164.58288688 334.11700657 -161.88058412 333.5046801 -159.17874146 332.89007568 C-157.25633774 332.45314566 -155.33313849 332.01972037 -153.40991211 331.58642578 C-146.04225193 329.87468185 -139.05054864 327.72932034 -132 325 C-131.01 324.67 -130.02 324.34 -129 324 C-127.84077872 322.26857146 -127.84077872 322.26857146 -127 320 C-126.608125 319.071875 -126.21625 318.14375 -125.8125 317.1875 C-124.55752264 312.26412728 -125.65115956 307.81728728 -127 303 C-126.38624512 302.93321045 -125.77249023 302.8664209 -125.14013672 302.79760742 C-122.82968817 302.18991816 -122.82968817 302.18991816 -121.79345703 299.98950195 C-121.45169434 299.08159912 -121.10993164 298.17369629 -120.7578125 297.23828125 C-120.34321777 296.16755371 -119.92862305 295.09682617 -119.50146484 293.99365234 C-119.04723145 292.77887207 -118.59299805 291.5640918 -118.125 290.3125 C-117.34903267 288.29723357 -116.56637312 286.28464513 -115.78323364 284.27215576 C-115.19511195 282.76077156 -114.60865736 281.24873784 -114.02365112 279.73614502 C-110.07845399 269.56100038 -105.93022483 259.46789881 -101.80163574 249.3661499 C-100.36122383 245.84128804 -98.92298764 242.31554561 -97.48535156 238.78955078 C-90.90088097 222.64225767 -84.30111252 206.50122581 -77.69555664 190.36254883 C-62.7015093 153.72900133 -47.74960951 117.07865124 -32.91984558 80.37826538 C-25.36139042 61.67326671 -17.78219348 42.9773373 -10.125 24.3125 C-9.61333786 23.064758 -9.61333786 23.064758 -9.09133911 21.79180908 C-8.12674831 19.44032374 -7.16124978 17.08921377 -6.1953125 14.73828125 C-5.91482559 14.05477097 -5.63433868 13.37126068 -5.34535217 12.66703796 C-3.60145669 8.42788164 -1.81458975 4.20939848 0 0 Z " fill="#0071B0" transform="translate(628,208)"/>
<path d="M0 0 C0.9742392 -0.00701431 1.94847839 -0.01402863 2.95223999 -0.02125549 C6.084093 -0.03867145 9.21575657 -0.0451093 12.34765625 -0.046875 C13.95693497 -0.04788712 13.95693497 -0.04788712 15.59872437 -0.04891968 C32.39211226 -0.0321559 48.79520012 0.5578423 65.41015625 3.203125 C66.5197168 3.37473145 67.62927734 3.54633789 68.77246094 3.72314453 C130.08427472 13.45476434 185.8053014 40.21053588 231.41015625 82.203125 C232.33570313 83.02554688 233.26125 83.84796875 234.21484375 84.6953125 C238.95437035 88.92106928 243.45069211 93.14454729 247.53125 98.01171875 C250.77123075 101.79057364 254.24043655 105.36802163 257.6640625 108.98046875 C258.58114983 110.05321712 259.49636697 111.1275659 260.41015625 112.203125 C261.02028564 112.83444336 261.63041504 113.46576172 262.2590332 114.11621094 C264.24957325 116.4721289 265.46058367 118.25942255 266.41015625 121.203125 C265.6480329 126.03226208 263.57932795 130.21071406 261.47265625 134.578125 C260.89211898 135.86046359 260.31609338 137.14485337 259.74438477 138.43115234 C258.56519663 141.07593016 257.36800427 143.71134046 256.15722656 146.34179688 C253.53030022 152.09212179 251.19800063 157.96066892 248.84765625 163.828125 C247.93344821 166.07989698 247.01808508 168.33120035 246.1015625 170.58203125 C245.65312988 171.68562988 245.20469727 172.78922852 244.74267578 173.92626953 C243.45571203 177.09109685 242.16596777 180.25477285 240.875 183.41796875 C235.74180058 195.99753637 230.63466876 208.58738803 225.54202271 221.18341064 C212.92240149 252.39375322 200.19634499 283.56067173 187.41015625 314.703125 C181.31396465 329.55203844 175.23021026 344.40600593 169.16015625 359.265625 C168.73266083 360.31196106 168.30516541 361.35829712 167.86471558 362.43634033 C163.76333214 372.47840302 159.66655046 382.5219283 155.6484375 392.59765625 C155.22995041 393.64703117 155.22995041 393.64703117 154.80300903 394.71760559 C153.56300067 397.83063211 152.32782625 400.94542397 151.09863281 404.06274414 C148.39995691 410.87385989 145.50837166 417.56397399 142.41015625 424.203125 C141.09015625 424.203125 139.77015625 424.203125 138.41015625 424.203125 C139.18359375 425.688125 139.18359375 425.688125 139.97265625 427.203125 C141.7760895 431.45407482 141.68610867 434.80019058 140.41015625 439.203125 C137.52510973 445.60040206 132.60443267 447.63332704 126.41015625 450.203125 C121.95887003 451.59966852 117.45779962 452.66911067 112.91015625 453.703125 C111.0242981 454.14531372 111.0242981 454.14531372 109.1003418 454.59643555 C97.50520181 457.27313108 85.83986959 459.56211636 74.1328125 461.69165039 C71.68976263 462.15059851 69.26557436 462.66332255 66.8359375 463.1875 C58.08343473 464.95472342 49.15804254 465.84511126 40.30322266 466.95043945 C29.25324447 468.33578701 18.32995955 470.00989584 7.41015625 472.203125 C7.41015625 472.863125 7.41015625 473.523125 7.41015625 474.203125 C23.69497862 474.3062638 39.94650393 474.29053959 56.22265625 473.703125 C68.87010355 473.27140514 81.51413599 473.03544323 94.16903687 472.97094727 C96.15151756 472.95913487 98.13397453 472.94210698 100.11636353 472.91967773 C102.89674052 472.88981502 105.67651221 472.87977405 108.45703125 472.875 C109.28887436 472.86269348 110.12071747 472.85038696 110.97776794 472.83770752 C115.63153989 472.85548004 118.62092433 473.2090106 122.41015625 476.203125 C125.79034962 480.13145784 127.07848686 483.16156494 126.796875 488.25 C125.72147032 493.68133676 121.81269464 497.23177919 117.41015625 500.203125 C114.69673493 500.9043587 112.24221163 501.38351123 109.484375 501.73828125 C108.6678093 501.85486588 107.85124359 501.9714505 107.00993347 502.09156799 C94.80571967 503.78053748 82.548295 505.09271315 70.30010986 506.41584396 C68.20293593 506.64275874 66.10596722 506.87149599 64.0090332 507.10061646 C38.17882505 509.91800973 12.32034021 512.24605537 -13.58984375 514.203125 C-13.58984375 515.523125 -13.58984375 516.843125 -13.58984375 518.203125 C5.19624285 525.75589859 24.95085036 526.82157353 44.91796875 528.73046875 C73.35118816 531.49305126 73.35118816 531.49305126 80.22265625 537.890625 C82.00150684 541.35470247 82.25938928 544.4651075 81.41015625 548.203125 C79.08621914 552.43071272 76.49449053 554.76135918 72.03515625 556.578125 C47.45388614 560.81627502 22.05146123 557.57645449 -2.58984375 555.203125 C-3.76111816 555.09145996 -4.93239258 554.97979492 -6.13916016 554.86474609 C-11.62574661 554.33801363 -17.10919323 553.78837034 -22.58984375 553.203125 C-14.37919255 582.03790133 -3.01381229 609.23297208 13.4140625 634.40795898 C16.41015625 639.01530985 16.41015625 639.01530985 16.41015625 641.203125 C-56.98604595 643.20483961 -130.47934463 610.7968592 -186.58984375 565.203125 C-187.14607422 564.75275879 -187.70230469 564.30239258 -188.27539062 563.83837891 C-253.2133583 510.85369525 -293.00754709 430.91948767 -301.91288757 348.18373108 C-302.9441718 337.68480965 -302.94021265 327.18093935 -302.90234375 316.640625 C-302.90052094 315.58519501 -302.89869812 314.52976501 -302.89682007 313.44235229 C-302.85053619 297.50637683 -302.34997533 281.93452858 -299.58984375 266.203125 C-299.4182373 265.18959961 -299.24663086 264.17607422 -299.06982422 263.13183594 C-290.50105069 213.64889173 -271.33486972 165.18334889 -240.58984375 125.203125 C-239.96577637 124.38618164 -239.96577637 124.38618164 -239.32910156 123.55273438 C-233.39088442 115.79756814 -227.2146925 108.38698253 -220.58984375 101.203125 C-219.10987135 99.53717377 -217.63071367 97.87049844 -216.15234375 96.203125 C-209.09502206 88.37121922 -201.67431904 80.9709105 -193.58984375 74.203125 C-193.0887207 73.77225586 -192.58759766 73.34138672 -192.07128906 72.89746094 C-174.8682498 58.13639955 -155.7732782 45.51204806 -135.58984375 35.203125 C-134.73132813 34.76162109 -133.8728125 34.32011719 -132.98828125 33.86523438 C-92.43322696 13.21219747 -45.72949115 0.22229437 0 0 Z " fill="#1EB0EA" transform="translate(362.58984375,86.796875)"/>
<path d="M0 0 C4.9655134 0.65757223 6.69225832 2.22615838 9.70703125 6.0546875 C14.25763618 12.90121698 13.84054935 21.51529682 12.3828125 29.29296875 C8.91519025 42.871932 2.24841675 54.54217491 -7 65 C-7.6290625 65.73734375 -8.258125 66.4746875 -8.90625 67.234375 C-14.7226353 73.90084739 -21.02142091 80.0841152 -27.32397461 86.28735352 C-28.04206299 86.99690186 -28.76015137 87.7064502 -29.5 88.4375 C-30.1496875 89.07558594 -30.799375 89.71367187 -31.46875 90.37109375 C-33.58247767 92.61962548 -33.97488813 93.76897084 -34.3125 96.875 C-34.27512379 100.03747354 -34.27512379 100.03747354 -32.33422852 102.15332031 C-27.90860024 105.65457042 -22.37147294 104.7633261 -16.9375 104.75 C-16.26220245 104.75057404 -15.58690491 104.75114807 -14.8911438 104.7517395 C-1.86917055 104.69433916 10.4574021 102.51598989 23.17572021 99.8999939 C41.07720324 96.23757288 59.0386509 94.02403612 77.1875 92.0625 C77.87786976 91.98767773 78.56823952 91.91285545 79.27952957 91.83576584 C86.21239067 91.08523326 93.1466552 90.34908871 100.08276367 89.62915039 C103.57206778 89.26544705 107.05448924 88.87883166 110.53393555 88.43066406 C114.58615752 87.92716899 118.54733813 87.74250443 122.625 87.6875 C123.34945313 87.65849609 124.07390625 87.62949219 124.8203125 87.59960938 C130.0190956 87.53839182 132.84789743 88.62329008 137 92 C140.60110028 95.9612103 140.50611783 100.21786235 140.34765625 105.34375 C139.69649337 110.31892705 137.35097006 112.8947847 133.57885742 115.98071289 C128.97410235 118.95653225 123.65455321 119.75056912 118.36328125 120.87109375 C116.6500341 121.24976845 116.6500341 121.24976845 114.9021759 121.63609314 C111.27059653 122.4359199 107.63551392 123.21827552 104 124 C101.68642459 124.50678242 99.37310616 125.01473961 97.06005859 125.52392578 C88.92888368 127.30961224 80.79189948 129.06818389 72.65454102 130.82543945 C60.78995708 133.38984499 48.92981314 135.96724609 37.11328125 138.74609375 C36.25816452 138.94493668 35.40304779 139.1437796 34.52201843 139.34864807 C30.53292564 140.29943381 26.76217992 141.32564675 23 143 C23 143.99 23 144.98 23 146 C32.36342138 145.35850167 41.66651355 144.40636875 50.984375 143.29296875 C52.41129049 143.12440311 53.83823209 142.95605844 55.26519775 142.78791809 C59.00752516 142.34630216 62.74946387 141.90147342 66.49133301 141.45599365 C69.45023822 141.10426085 72.409409 140.75479658 75.3686018 140.40549278 C79.03228898 139.97296324 82.69583583 139.53924991 86.359375 139.10546875 C87.0847817 139.01964916 87.81018841 138.93382957 88.55757713 138.84540939 C96.75210743 137.87511345 104.94395243 136.88675985 113.13208008 135.86376953 C115.35640494 135.58766521 117.58076767 135.31186773 119.80513763 135.03612709 C121.86669214 134.7788552 123.92750497 134.51616377 125.98834229 134.2532196 C153.83645278 130.79858423 153.83645278 130.79858423 161.3984375 134.796875 C164.94638559 137.80144365 166.69765793 140.55100537 168 145 C168.32443199 149.22552888 167.2916985 152.35319029 165.5625 156.1875 C158.91699826 163.48134337 148.77465371 165.39118802 139.5 167.5 C137.61414185 167.94218872 137.61414185 167.94218872 135.69018555 168.39331055 C124.09504556 171.07000608 112.42971334 173.35899136 100.72265625 175.48852539 C98.27960638 175.94747351 95.85541811 176.46019755 93.42578125 176.984375 C84.67327848 178.75159842 75.74788629 179.64198626 66.89306641 180.74731445 C55.84308822 182.13266201 44.9198033 183.80677084 34 186 C34 186.66 34 187.32 34 188 C50.28482237 188.1031388 66.53634768 188.08741459 82.8125 187.5 C95.4599473 187.06828014 108.10397974 186.83231823 120.75888062 186.76782227 C122.74136131 186.75600987 124.72381828 186.73898198 126.70620728 186.71655273 C129.48658427 186.68669002 132.26635596 186.67664905 135.046875 186.671875 C135.87871811 186.65956848 136.71056122 186.64726196 137.56761169 186.63458252 C142.22138364 186.65235504 145.21076808 187.0058856 149 190 C152.38019337 193.92833284 153.66833061 196.95843994 153.38671875 202.046875 C152.31131407 207.47821176 148.40253839 211.02865419 144 214 C141.28657868 214.7012337 138.83205538 215.18038623 136.07421875 215.53515625 C135.25765305 215.65174088 134.44108734 215.7683255 133.59977722 215.88844299 C121.39556342 217.57741248 109.13813875 218.88958815 96.88995361 220.21271896 C94.79277968 220.43963374 92.69581097 220.66837099 90.59887695 220.89749146 C64.7686688 223.71488473 38.91018396 226.04293037 13 228 C13 229.32 13 230.64 13 232 C31.7860866 239.55277359 51.54069411 240.61844853 71.5078125 242.52734375 C99.94103191 245.28992626 99.94103191 245.28992626 106.8125 251.6875 C108.59135059 255.15157747 108.84923303 258.2619825 108 262 C105.67606289 266.22758772 103.08433428 268.55823418 98.625 270.375 C74.06511122 274.60946358 48.61958209 271.43486402 24 269 C22.74074707 268.8772168 21.48149414 268.75443359 20.18408203 268.62792969 C8.58234274 267.47110195 -2.77809698 265.97384813 -14.16918945 263.48510742 C-25.2260339 261.17341346 -36.51073433 260.37390743 -47.74121094 259.31152344 C-75.70603435 256.63823046 -100.18466735 252.15141414 -122 233 C-122.76054687 232.33484375 -123.52109375 231.6696875 -124.3046875 230.984375 C-139.96427583 216.35430978 -149.01139514 194.85355092 -150.12402344 173.63476562 C-150.95941042 148.3256342 -143.62827467 126.155632 -126.8125 107 C-125.22303166 105.31931 -123.61715041 103.65407165 -122 102 C-121.48808105 101.46375 -120.97616211 100.9275 -120.44873047 100.375 C-107.64814039 86.97233718 -93.71761997 76.62424481 -77.859375 67.1171875 C-68.16167149 61.29369217 -59.09483148 54.71529518 -50 48 C-49.40735352 47.56478027 -48.81470703 47.12956055 -48.20410156 46.68115234 C-33.64319284 35.98023347 -20.39161358 24.77657757 -9.08203125 10.59375 C-6.16707317 6.96235757 -3.09742284 3.47588608 0 0 Z " fill="#FEFEFE" transform="translate(336,373)"/>
<path d="M0 0 C8.21504421 7.43265904 8.21504421 7.43265904 8.93359375 12.58984375 C9.47911548 24.11192387 3.1337209 31.75751832 -3.07446289 40.92626953 C-9.13772377 49.90568595 -14.79033438 59.14871746 -20.50097656 68.35449219 C-22.26589 71.19913902 -24.03477005 74.04127739 -25.8046875 76.8828125 C-31.22284727 85.59335456 -36.5881266 94.33408385 -41.875 103.125 C-42.35541748 103.92260742 -42.83583496 104.72021484 -43.33081055 105.54199219 C-45.64528545 109.4063714 -47.92620532 113.28936465 -50.15625 117.203125 C-50.55908203 117.90856445 -50.96191406 118.61400391 -51.37695312 119.34082031 C-52.36167296 121.34783736 -52.92153673 123.19224842 -53.375 125.375 C-48.99083281 123.07091213 -45.89554252 120.02039741 -42.625 116.375 C-42.09914307 115.79685547 -41.57328613 115.21871094 -41.03149414 114.62304688 C-37.09377204 110.25964127 -33.33465562 105.76874877 -29.65234375 101.1875 C-26.2878492 97.03237808 -22.81245232 92.97448111 -19.34375 88.90625 C-17.67564269 86.94662024 -16.05124656 84.96605046 -14.45361328 82.94799805 C-8.517874 75.49585346 -2.04485858 68.83821247 4.75 62.1875 C13.63485096 53.47170458 13.63485096 53.47170458 21.99267578 44.25415039 C25.02350048 40.76503018 28.25674291 37.47798899 31.5 34.1875 C32.48419922 33.15979492 32.48419922 33.15979492 33.48828125 32.11132812 C38.82742612 26.70453327 44.51366925 22.02415749 52.1875 20.8125 C57.95556526 21.75636522 62.6016713 23.87528468 66.5 28.3125 C70.07479999 33.46441763 71.13188788 36.81448109 70.20703125 43.00390625 C67.80211483 52.80111609 59.84854029 60.72014164 53.625 68.375 C52.51688779 69.74345777 51.40881563 71.11194796 50.30078125 72.48046875 C48.07792116 75.22178111 45.85098506 77.95971726 43.62109375 80.6953125 C38.63894975 86.80926796 33.72042366 92.96982123 28.86767578 99.18701172 C24.20458039 105.15530768 19.45528664 111.04106011 14.625 116.875 C-0.74907308 134.19484605 -0.74907308 134.19484605 -13.375 153.375 C-7.94632306 151.28704733 -4.66003124 147.84303566 -0.65234375 143.6953125 C1.91666505 141.07783184 4.62223723 138.70018592 7.40234375 136.3125 C10.14493475 133.92177041 12.82351303 131.46404056 15.5 129 C22.77695145 122.30762993 30.1070722 115.68093711 37.5625 109.1875 C39.93464429 107.10288836 42.28056065 104.99071356 44.625 102.875 C48.92414088 99.00054629 53.23739917 95.14911328 57.625 91.375 C58.61113281 90.52164063 59.59726562 89.66828125 60.61328125 88.7890625 C61.67910158 87.87952129 62.74550727 86.97066557 63.8125 86.0625 C64.79605469 85.22074219 65.77960938 84.37898438 66.79296875 83.51171875 C71.21361606 80.17641658 74.90882204 78.88681599 80.5078125 79.06640625 C85.92139046 79.8554702 90.16571303 82.35949453 93.5625 86.625 C96.86589034 91.87683075 97.0983404 96.27877822 95.75 102.25 C93.56114302 107.27950694 89.8336368 110.96513967 86.06591797 114.86914062 C84.48232764 116.52410253 82.92931569 118.20454906 81.37890625 119.890625 C75.60772166 126.15571411 69.75876301 132.33692162 63.75 138.375 C63.25145508 138.87813721 62.75291016 139.38127441 62.23925781 139.8996582 C59.58332733 142.54464633 56.85644907 145.05922383 54.01123047 147.49975586 C46.47701035 154.07210574 39.45733711 161.20118456 32.35888672 168.23608398 C30.52814275 170.04508399 28.69115275 171.8477835 26.84814453 173.64428711 C24.17590744 176.24987245 21.52366078 178.87438456 18.875 181.50390625 C18.04701904 182.30405655 17.21903809 183.10420685 16.3659668 183.92860413 C15.610979 184.68636642 14.85599121 185.44412872 14.078125 186.22485352 C13.40942383 186.88324722 12.74072266 187.54164093 12.05175781 188.21998596 C10.18031092 191.04667055 10.36359825 193.05556376 10.625 196.375 C29.99103232 189.37480116 48.36666755 172.78278503 65.01611328 160.94262695 C79.37788524 150.79523082 79.37788524 150.79523082 86.625 151.375 C91.97377526 153.03126921 95.52435415 155.66201831 98.625 160.375 C99.88949282 162.90398565 99.86416842 164.79980454 99.9375 167.625 C99.97488281 168.55828125 100.01226562 169.4915625 100.05078125 170.453125 C99.06622278 177.20954461 93.70454919 181.46803442 88.875 185.8125 C88.2466626 186.38669678 87.6183252 186.96089355 86.97094727 187.55249023 C83.27365395 190.92100782 79.53388377 194.23744647 75.74609375 197.50390625 C72.82701786 200.078929 69.97878158 202.72803175 67.125 205.375 C63.66214793 208.58661496 60.19851586 211.78602867 56.625 214.875 C53.09710131 217.92655794 49.6716494 221.08062225 46.25 224.25 C38.15153365 231.74346191 30.03742767 239.13897054 21.44921875 246.07421875 C19.57996481 247.59702728 17.72789444 249.14119745 15.89453125 250.70703125 C7.80793203 257.6113139 -0.63271123 263.94271576 -9.37744141 269.98925781 C-10.99974776 271.1146808 -12.60260039 272.268109 -14.19921875 273.4296875 C-28.54747516 282.71793078 -50.00940601 280.8414266 -66.375 280.375 C-67.035 279.055 -67.695 277.735 -68.375 276.375 C-58.98161116 266.80837243 -58.98161116 266.80837243 -54.3125 262.875 C-40.53988113 250.9167381 -24.54774287 231.05455332 -22.375 212.375 C-21.69746777 200.91744607 -21.72971831 189.64200811 -29.375 180.375 C-34.07007913 177.45203317 -39.03410819 177.46113071 -44.375 178.375 C-47.6849666 180.09127898 -49.88533115 182.63294204 -52.375 185.375 C-53.42289818 186.49237021 -54.47252634 187.60811934 -55.5234375 188.72265625 C-57.93900265 191.29615697 -60.34357106 193.8794499 -62.7421875 196.46875 C-72.52210609 206.99858302 -82.50566982 216.23088073 -94.125 224.72802734 C-96.41656433 226.40542459 -98.69292511 228.10210941 -100.96875 229.80078125 C-108.69195923 235.51982506 -116.39341652 240.65858364 -124.8125 245.296875 C-139.83249264 253.82402658 -153.05008244 265.33022474 -165.66796875 277.01171875 C-167.375 278.375 -167.375 278.375 -169.375 278.375 C-189.77969362 238.83106706 -189.54007994 200.96362221 -180.22949219 158.32861328 C-174.13070658 130.32873334 -171.52426359 101.30324871 -169.49609375 72.75390625 C-169.43048752 71.83306244 -169.36488129 70.91221863 -169.29728699 69.96347046 C-168.99181132 65.60243129 -168.70693926 61.24117216 -168.45092773 56.87695312 C-168.3501404 55.31510141 -168.24931262 53.7532523 -168.1484375 52.19140625 C-168.11419174 51.49866104 -168.07994598 50.80591583 -168.04466248 50.09217834 C-167.6368666 44.02126282 -166.29592313 39.15871434 -161.75 34.9375 C-156.78027537 32.63670156 -152.55966951 32.4154009 -147.30078125 34 C-137.050371 38.51098605 -131.43800211 47.31906977 -127.375 57.375 C-121.47656432 74.88598094 -123.2077565 92.16170592 -125.30102539 110.16381836 C-126.26157131 118.62967619 -126.76596315 126.86069146 -126.375 135.375 C-124.06974062 136.14635189 -124.06974062 136.14635189 -121.375 136.375 C-115.34777012 132.96131549 -111.11358062 126.78348247 -107.25 121.1875 C-106.70287354 120.412854 -106.15574707 119.63820801 -105.59204102 118.84008789 C-103.84300795 116.35858985 -102.10861728 113.86728557 -100.375 111.375 C-99.20000338 109.69997016 -98.02422074 108.02549142 -96.84765625 106.3515625 C-94.48804778 102.99075 -92.13425144 99.62598125 -89.78515625 96.2578125 C-85.16405585 89.63462654 -80.50070292 83.04145745 -75.83837891 76.44726562 C-74.3624316 74.3572021 -72.88975678 72.26486911 -71.41796875 70.171875 C-65.69710833 62.04104582 -59.92474523 53.95036996 -54.09228516 45.89916992 C-51.21646863 41.92885196 -48.35516279 37.94937746 -45.51928711 33.95043945 C-15.96847554 -7.68852526 -15.96847554 -7.68852526 0 0 Z " fill="#FDFEFE" transform="translate(377.375,190.625)"/>
<path d="M0 0 C3.14205113 2.90471857 4.11422696 5.5549915 5.48828125 9.6328125 C5.71205948 10.29286285 5.93583771 10.95291321 6.16639709 11.63296509 C6.8933927 13.79330031 7.60452126 15.95836293 8.3125 18.125 C8.55744202 18.86818481 8.80238403 19.61136963 9.05474854 20.3770752 C22.19835606 60.38496566 28.28126865 101.81866867 28.25 143.875 C28.24940582 144.74861176 28.24881165 145.62222351 28.24819946 146.52230835 C28.20247147 164.06799337 27.41812329 181.37958389 24.875 198.75 C24.76640656 199.49734406 24.65781311 200.24468811 24.54592896 201.01467896 C16.12635011 258.25589597 -5.14354396 318.36107995 -40 365 C-44.9167799 363.41791475 -48.52953214 360.55002495 -52.5625 357.4375 C-53.98042616 356.35801697 -55.39839538 355.2785905 -56.81640625 354.19921875 C-57.86852295 353.39363525 -57.86852295 353.39363525 -58.94189453 352.57177734 C-61.94607086 350.27748468 -64.97247885 348.01333753 -68 345.75 C-69.66666667 344.5 -71.33333333 343.25 -73 342 C-71.27293786 336.94072384 -68.41857587 332.64344759 -65.625 328.125 C-41.15598253 287.83466486 -25.47754911 244.66168507 -17.6875 198.25 C-17.5579895 197.48000671 -17.428479 196.71001343 -17.29504395 195.91668701 C-16.92263945 193.67992728 -16.55898653 191.44194924 -16.19921875 189.203125 C-15.99127686 187.91051758 -15.78333496 186.61791016 -15.5690918 185.28613281 C-14.26857413 176.17358031 -13.83515816 167.02752435 -13.76171875 157.83203125 C-13.74702797 156.29328339 -13.74702797 156.29328339 -13.73204041 154.72344971 C-13.39821599 110.65696524 -15.7809477 62.47753683 -36.14233398 22.37719727 C-37.13281916 19.63186445 -37.04311877 18.68053019 -36 16 C-33.34099702 14.50422774 -30.82444857 13.28691762 -28.02734375 12.109375 C-27.22970108 11.75989807 -26.43205841 11.41042114 -25.61024475 11.050354 C-23.05851252 9.93617058 -20.49838307 8.8429633 -17.9375 7.75 C-16.20708984 6.99875902 -14.47726371 6.24617124 -12.74804688 5.4921875 C-8.50531952 3.64575605 -4.25494553 1.81808822 0 0 Z " fill="#FDFEFE" transform="translate(812,369)"/>
<path d="M0 0 C0.82564453 1.04220703 0.82564453 1.04220703 1.66796875 2.10546875 C4.17166282 5.21306893 6.7320308 8.26877686 9.3125 11.3125 C9.76044922 11.84294922 10.20839844 12.37339844 10.66992188 12.91992188 C12.10775489 14.61806978 13.55292948 16.30971844 15 18 C15.51900879 18.61093506 16.03801758 19.22187012 16.57275391 19.85131836 C27.51631749 32.57516694 39.60046412 44.86589723 53 55 C54.22289293 55.97202557 55.44410998 56.94616157 56.6640625 57.921875 C67.8986126 66.81893567 79.76080553 74.56039728 92 82 C92.70979004 82.43296387 93.41958008 82.86592773 94.15087891 83.31201172 C128.52507168 104.05284712 168.22491153 117.18849736 208 122 C204.32597461 126.44146693 200.54390811 130.5104827 196.25 134.375 C195.47293701 135.07761963 195.47293701 135.07761963 194.68017578 135.79443359 C193.12366913 137.20029519 191.56215558 138.6004217 190 140 C189.12601563 140.78890625 188.25203125 141.5778125 187.3515625 142.390625 C184.90487144 144.59804974 182.45290477 146.79948415 180 149 C178.33307353 150.49971128 176.66640851 151.99971321 175 153.5 C171.66666667 156.5 168.33333333 159.5 165 162.5 C164.17371094 163.24378906 163.34742188 163.98757813 162.49609375 164.75390625 C160.84296657 166.241462 159.18932744 167.72844903 157.53515625 169.21484375 C153.13486935 173.17023592 148.74729624 177.13867198 144.375 181.125 C141.29690434 183.92757381 138.2069813 186.70967875 135.0625 189.4375 C131.65310393 192.39884402 128.32239979 195.44188786 125 198.5 C117.9972041 204.93352508 117.9972041 204.93352508 114.625 207.9375 C113.77808594 208.69353516 113.77808594 208.69353516 112.9140625 209.46484375 C110.38980016 211.48940518 107.70892863 213.2334733 105 215 C100.39362671 206.64517394 96.07958408 198.18723583 92 189.5625 C87.46413592 179.97365907 82.76403345 170.47668201 78 161 C73.47616094 151.99759308 68.99207688 142.98500076 64.6875 133.875 C59.04459666 121.9387652 53.10560021 110.15175857 47.1628418 98.36279297 C42.96457455 90.01978263 38.85925109 81.64130232 34.85546875 73.203125 C30.54678081 64.13351043 26.09777477 55.13956209 21.58203125 46.171875 C21.26471416 45.54116592 20.94739708 44.91045685 20.62046432 44.26063538 C17.68118712 38.41865831 14.73802997 32.57865201 11.78588867 26.74316406 C10.14713401 23.50319936 8.51418343 20.26036649 6.88495445 17.01560211 C6.27036707 15.79445427 5.65356434 14.57441867 5.03446388 13.35555267 C4.18003863 11.67306175 3.33359058 9.98652683 2.48754883 8.29980469 C2.0055452 7.34547546 1.52354156 6.39114624 1.02693176 5.40789795 C0 3 0 3 0 0 Z " fill="#14466F" transform="translate(382,730)"/>
<path d="M0 0 C1.17919922 2.51831055 1.17919922 2.51831055 2.3046875 5.88671875 C2.92911743 7.7433313 2.92911743 7.7433313 3.56616211 9.63745117 C4.00369912 10.98706035 4.4399507 12.33708685 4.875 13.6875 C5.09721222 14.36616119 5.31942444 15.04482239 5.54837036 15.74404907 C9.44961741 27.6797496 12.68549698 39.64865951 15 52 C15.22526367 53.18215088 15.22526367 53.18215088 15.45507812 54.38818359 C26.75016617 115.13093845 17.43227564 179.32475038 -9 235 C-9.38559082 235.81500977 -9.77118164 236.63001953 -10.16845703 237.46972656 C-15.73396927 249.13956626 -21.90549348 260.19219857 -29 271 C-32.75660492 269.30907078 -35.99249984 266.96901174 -39.3125 264.5625 C-40.21379639 263.914021 -40.21379639 263.914021 -41.13330078 263.25244141 C-48.12167047 258.21339268 -55.0634942 253.11008691 -62 248 C-60.83057108 244.18569444 -59.53792965 240.97210342 -57.375 237.625 C-53.09042382 230.66126061 -49.52151692 223.37126646 -46 216 C-45.6994873 215.37383789 -45.39897461 214.74767578 -45.08935547 214.10253906 C-18.18827033 157.35641977 -13.15992004 86.71587846 -34.27661133 27.36035156 C-35.80003372 23.21978499 -37.3694037 19.09953584 -39 15 C-34.87700184 13.07900634 -30.75124516 11.164008 -26.625 9.25 C-25.46871094 8.71117187 -24.31242188 8.17234375 -23.12109375 7.6171875 C-17.88895255 5.19325768 -12.64821571 2.79073806 -7.3359375 0.546875 C-6.56556152 0.22041992 -5.79518555 -0.10603516 -5.00146484 -0.44238281 C-3 -1 -3 -1 0 0 Z " fill="#FDFEFE" transform="translate(729,408)"/>
<path d="M0 0 C1.03320312 1.70800781 1.03320312 1.70800781 1.78125 3.953125 C2.06403809 4.79012939 2.34682617 5.62713379 2.63818359 6.48950195 C3.06478271 7.85594849 3.06478271 7.85594849 3.5 9.25 C3.80115723 10.18352295 4.10231445 11.1170459 4.41259766 12.07885742 C14.15011796 43.37354007 15.19293967 78.06969778 8 110 C7.78569336 110.95148926 7.57138672 111.90297852 7.35058594 112.88330078 C2.6895491 132.82670366 -4.90784685 155.85163445 -18 172 C-22.30717568 170.54841041 -25.55368454 168.24551092 -29.0625 165.4375 C-30.20504711 164.53819529 -31.34829358 163.63977847 -32.4921875 162.7421875 C-33.0706543 162.28682617 -33.64912109 161.83146484 -34.24511719 161.36230469 C-35.96064005 160.03055489 -37.69587939 158.73210217 -39.4453125 157.4453125 C-40.26310181 156.8431189 -40.26310181 156.8431189 -41.09741211 156.22875977 C-42.60880263 155.12022107 -44.12269356 154.01509384 -45.63671875 152.91015625 C-48 151 -48 151 -50 148 C-49.35933594 146.87207031 -48.71867188 145.74414062 -48.05859375 144.58203125 C-41.50679879 132.76746477 -36.78349961 120.95638423 -33 108 C-32.49339844 106.28490234 -32.49339844 106.28490234 -31.9765625 104.53515625 C-23.72007701 74.08425681 -28.12800103 44.29754533 -38 15 C-29.49634633 10.64390493 -20.93917855 6.4125454 -12.25 2.4375 C-11.10748779 1.89996094 -11.10748779 1.89996094 -9.94189453 1.3515625 C-9.22372559 1.02800781 -8.50555664 0.70445312 -7.765625 0.37109375 C-6.81864746 -0.0631189 -6.81864746 -0.0631189 -5.85253906 -0.50610352 C-3.47581689 -1.13974993 -2.24771911 -0.99778369 0 0 Z " fill="#FDFEFE" transform="translate(641,448)"/>
<path d="M0 0 C-0.92280762 0.34780518 -0.92280762 0.34780518 -1.86425781 0.70263672 C-4.66034098 1.7578918 -7.45517757 2.81641064 -10.25 3.875 C-11.21808594 4.23980469 -12.18617188 4.60460937 -13.18359375 4.98046875 C-14.58544922 5.51220703 -14.58544922 5.51220703 -16.015625 6.0546875 C-16.87446289 6.37937012 -17.73330078 6.70405273 -18.61816406 7.03857422 C-20.81236529 7.92426143 -22.90191184 8.9084845 -25 10 C-25 10.33 -25 10.66 -25 11 C-35.89 11 -46.78 11 -58 11 C-58 9.68 -58 8.36 -58 7 C-45.01584592 4.4141727 -32.00416946 2.36057799 -18.875 0.6875 C-18.16569336 0.59464722 -17.45638672 0.50179443 -16.72558594 0.40612793 C-14.69039629 0.14136003 -12.65417236 -0.11274326 -10.6171875 -0.36328125 C-9.43753418 -0.51063721 -8.25788086 -0.65799316 -7.04248047 -0.80981445 C-4.34439031 -0.97847215 -2.53157947 -0.86139154 0 0 Z " fill="#1CABE7" transform="translate(428,551)"/>
<path d="M0 0 C-0.99 0.66 -1.98 1.32 -3 2 C-0.03 2.33 2.94 2.66 6 3 C6 3.33 6 3.66 6 4 C-1.26 4 -8.52 4 -16 4 C-13.41588269 2.27725513 -11.45097344 1.31104478 -8.5625 0.3125 C-7.41974609 -0.09548828 -7.41974609 -0.09548828 -6.25390625 -0.51171875 C-3.78170279 -1.04729142 -2.37016716 -0.80445309 0 0 Z " fill="#015EA0" transform="translate(416,557)"/>
<path d="M0 0 C0.53625 0.680625 1.0725 1.36125 1.625 2.0625 C3.94790138 4.93556223 6.36356826 7.69794378 8.828125 10.44921875 C10 12 10 12 10 14 C9.34 14 8.68 14 8 14 C7.67 14.66 7.34 15.32 7 16 C5.82558465 13.89983377 4.66035988 11.79541245 3.5 9.6875 C3.16613281 9.09259766 2.83226562 8.49769531 2.48828125 7.88476562 C0.93174886 5.04171156 0 3.29339012 0 0 Z " fill="#153A63" transform="translate(382,730)"/>
<path d="M0 0 C1.32 0.66 2.64 1.32 4 2 C1.69 4.31 -0.62 6.62 -3 9 C-3.66 8.67 -4.32 8.34 -5 8 C-4.34 6.68 -3.68 5.36 -3 4 C-3.99 4 -4.98 4 -6 4 C-4.02 2.68 -2.04 1.36 0 0 Z " fill="#10A8E8" transform="translate(376,330)"/>
<path d="M0 0 C0.66 0 1.32 0 2 0 C1.34 1.98 0.68 3.96 0 6 C-0.66 6 -1.32 6 -2 6 C-2.268125 6.928125 -2.53625 7.85625 -2.8125 8.8125 C-3.91148371 11.76240366 -4.62418561 13.05615186 -7 15 C-5.45454854 9.52067211 -2.84456788 4.88570819 0 0 Z " fill="#0C64A8" transform="translate(716,650)"/>
<path d="M0 0 C-1.26839526 0.50615298 -2.53983102 1.00469099 -3.8125 1.5 C-4.87404297 1.91765625 -4.87404297 1.91765625 -5.95703125 2.34375 C-8 3 -8 3 -11 3 C-11 2.34 -11 1.68 -11 1 C-11.66 0.67 -12.32 0.34 -13 0 C-11.58456585 -0.19658808 -10.16755969 -0.38187546 -8.75 -0.5625 C-7.96109375 -0.66691406 -7.1721875 -0.77132812 -6.359375 -0.87890625 C-3.99467126 -1.00027349 -2.2488963 -0.69633257 0 0 Z " fill="#1DAFED" transform="translate(428,551)"/>
</svg>
